# AST/ASF file generated using VICON BodyLanguage
# -----------------------------------------------
:version 1.10
:name VICON
:units
  mass 1.0
  length 0.45
  angle deg
:documentation
   .ast/.asf automatically generated from VICON data using
   VICON BodyBuilder and BodyLanguage model FoxedUp or BRILLIANT.MOD
:root
   order TX TY TZ RX RY RZ
   axis XYZ
   position 0 0 0  
   orientation 0 0 0 
:bonedata
  begin
     id 1 
     name lhipjoint
     direction 0.575328 -0.747301 0.332475 
     length 2.40933 
     axis 0 0 0  XYZ
  end
  begin
     id 2 
     name lfemur
     direction 0.34202 -0.939693 0  
     length 7.31453  
     axis 0 0 20  XYZ
    dof rx ry rz
    limits (-160.0 20.0)
           (-70.0 70.0)
           (-60.0 70.0)
  end
  begin
     id 3 
     name ltibia
     direction 0.34202 -0.939693 0   
     length 7.82185   
     axis 0 0 20   XYZ
    dof rx
    limits (-10.0 170.0)
  end
  begin
     id 4 
     name lfoot
     direction 0.0795993 -0.218697 0.972541   
     length 2.19173   
     axis -90 7.62852e-016 20   XYZ
    dof rx rz
    limits (-45.0 90.0)
           (-70.0 20.0)
  end
  begin
     id 5 
     name ltoes
     direction 1.53537e-011 -4.21894e-011 1   
     length 1.10023   
     axis -90 7.62852e-016 20   XYZ
    dof rx
    limits (-90.0 20.0)
  end
  begin
     id 6 
     name rhipjoint
     direction -0.513884 -0.783789 0.348708   
     length 2.29716  
     axis 0 0 0  XYZ 
  end
  begin
     id 7 
     name rfemur
     direction -0.34202 -0.939693 0   
     length 7.59573   
     axis 0 0 -20   XYZ
    dof rx ry rz
    limits (-160.0 20.0)
           (-70.0 70.0)
           (-70.0 60.0)
  end
  begin
     id 8 
     name rtibia
     direction -0.34202 -0.939693 0   
     length 7.66402   
     axis 0 0 -20   XYZ
    dof rx
    limits (-10.0 170.0)
 end
 begin
     id 9 
     name rfoot
     direction -0.137793 -0.378584 0.915253   
     length 2.27056  
     axis -90 -7.62852e-016 -20   XYZ
    dof rx rz
    limits (-45.0 90.0)
           (-20.0 70.0)
  end
  begin
     id 10 
     name rtoes
     direction -1.53493e-011 -4.22159e-011 1   
     length 1.11766   
     axis -90 -7.62852e-016 -20   XYZ
    dof rx
    limits (-90.0 20.0)
  end
  begin
     id 11 
     name lowerback
     direction -0.00732775 0.998356 -0.05685   
     length 2.16513   
     axis 0 0 0   XYZ
    dof rx ry rz
    limits (-20.0 45.0)
           (-30.0 30.0)
           (-30.0 30.0)
  end
  begin
     id 12 
     name upperback
     direction 0.0218081 0.999627 -0.0164647   
     length 2.16755   
     axis 0 0 0   XYZ
    dof rx ry rz
    limits (-20.0 45.0)
           (-30.0 30.0)
           (-30.0 30.0)
  end
  begin
     id 13 
     name thorax
     direction 0.02365 0.999661 0.0108914   
     length 2.16932   
     axis 0 0 0   XYZ
    dof rx ry rz
    limits (-20.0 45.0)
           (-30.0 30.0)
           (-30.0 30.0)
  end
  begin
     id 14 
     name lowerneck
     direction -0.0523929 0.978385 0.200044   
     length 1.63877   
     axis 0 0 0   XYZ
    dof rx ry rz
    limits (-20.0 45.0)
           (-30.0 30.0)
           (-30.0 30.0)
  end
  begin
     id 15 
     name upperneck
     direction 0.0448674 0.981321 -0.187074   
     length 1.69014   
     axis 0 0 0   XYZ
    dof rx ry rz
    limits (-20.0 45.0)
           (-30.0 30.0)
           (-30.0 30.0)
  end
  begin
     id 16
     name head
     direction 0.0199089 0.996118 -0.0857429  
     length 1.70094  
     axis 0 0 0   XYZ
    dof rx ry rz
    limits (-20.0 45.0)
           (-30.0 30.0)
           (-30.0 30.0)
  end
  begin
     id 17 
     name lclavicle
     direction 0.940366 0.30191 -0.156722  
     length 3.37521  
     axis 0 0 0   XYZ
    dof ry rz
    limits (-20.0 10.0)
           (0.0 20.0)
  end
  begin
     id 18 
     name lhumerus
     direction 1 -4.4897e-011 -1.7911e-027   
     length 5.25287   
     axis 180 -30 -90   XYZ
    dof rx ry rz
    limits (-60.0 90.0)
           (-90.0 90.0)
           (-90.0 90.0)
  end
  begin
     id 19
     name lradius
     direction 1 -4.48951e-011 1.04424e-027   
     length 3.51014   
     axis 180 -30 -90   XYZ
    dof rx
    limits (-10.0 170.0)
  end
  begin
     id 20
     name lwrist
     direction 1 -4.48997e-011 -9.5942e-028   
     length 1.75507   
     axis 8.48502e-016 90 90   XYZ
    dof ry
    limits (-180.0 0.0)
 end
  begin
     id 21 
     name lhand
     direction 1 -4.48831e-011 -1.90777e-027   
     length 0.706179   
     axis 1.22306e-015 90 90   XYZ
    dof rx rz
    limits (-90.0 90.0)
           (-45.0 45.0)
  end
  begin
     id 22 
     name lfingers
     direction 1 -4.49108e-011 -3.85244e-027   
     length 0.569339   
     axis 2.44611e-015 90 90   XYZ
    dof rx
    limits (0.0 90.0)
  end
  begin
     id 23
     name lthumb
     direction 0.707107 -6.34953e-011 0.707107   
     length 0.817461   
     axis -90 45 -1.62303e-014   XYZ
    dof rx rz
    limits (-45.0 45.0)
           (-45.0 45.0)
  end
  begin
     id 24 
     name rclavicle
     direction -0.905329 0.382405 -0.184787   
     length 3.30787  
     axis 0 0 0   XYZ 
    dof ry rz
    limits (-10.0 20.0)
           (-20.0 0.0)
  end
  begin
     id 25 
     name rhumerus
     direction -1 -4.48953e-011 -9.15316e-029  
     length 5.28721   
     axis 180 30 90   XYZ
    dof rx ry rz
    limits (-90.0 60.0)
           (-90.0 90.0)
           (-90.0 90.0)
  end
  begin
     id 26 
     name rradius
     direction -1 -4.48987e-011 9.37824e-028   
     length 3.50544   
     axis 180 30 90   XYZ
    dof rx
    limits (-10.0 170.0)
  end
  begin
     id 27 
     name rwrist
     direction -1 -4.48967e-011 -9.58414e-028   
     length 1.75272   
     axis 8.48502e-016 -90 -90   XYZ
    dof ry
    limits (-180.0 0.0)
  end
  begin
     id 28
     name rhand
     direction -1 -4.48904e-011 -1.91266e-027   
     length 0.884996   
     axis 1.22306e-015 -90 -90   XYZ
    dof rx rz
    limits (-90.0 90.0)
           (-45.0 45.0)
  end
  begin
     id 29
     name rfingers
     direction -1 -4.4909e-011 -3.85015e-027   
     length 0.713507   
     axis 2.44611e-015 -90 -90   XYZ
    dof rx
    limits (0.0 90.0)
  end
  begin
     id 30
     name rthumb
     direction -0.707107 -6.34853e-011 0.707107   
     length 1.02446   
     axis -90 -45 1.62303e-014   XYZ
    dof rx rz
    limits (-45.0 45.0)
           (-45.0 45.0)
  end
:hierarchy
  begin
    root lhipjoint rhipjoint lowerback
    lhipjoint lfemur
    lfemur ltibia
    ltibia lfoot
    lfoot ltoes
    rhipjoint rfemur
    rfemur rtibia
    rtibia rfoot
    rfoot rtoes
    lowerback upperback
    upperback thorax
    thorax lowerneck lclavicle rclavicle
    lowerneck upperneck
    upperneck head
    lclavicle lhumerus
    lhumerus lradius
    lradius lwrist
    lwrist lhand lthumb
    lhand lfingers
    rclavicle rhumerus
    rhumerus rradius
    rradius rwrist
    rwrist rhand rthumb
    rhand rfingers
  end

#!OML:ASF F:\twosubjects\two\Thursday\Session 1\justin.ASF
:FULLY-SPECIFIED
:DEGREES
131
root 9.84588 15.995 -10.4345 9.0527 38.2718 4.77236
lowerback 19.1623 -0.152233 1.74907
upperback 0.371165 0.612479 3.50276
thorax -10.4063 0.327152 2.6779
lowerneck -1.64813 -19.5152 -15.2755
upperneck 5.0501 -27.2544 18.995
head 6.53679 -13.1649 5.50239
rclavicle -3.97569e-015 -5.725e-014
rhumerus 87.588 26.981 -20.9622
rradius 103.556
rwrist 2.59457
rhand -32.9279 15.6514
rfingers 7.12502
rthumb -6.14458 -14.2395
lclavicle -3.97569e-015 -5.725e-014
lhumerus -14.2058 41.5603 66.7728
lradius 140.963
lwrist 38.6892
lhand -24.3992 42.6639
lfingers 7.12502
lthumb 2.09179 72.6334
rfemur -34.0815 0.527921 -12.6333
rtibia 35.207
rfoot -3.04147 -10.7352
rtoes -35.0646
lfemur -12.8183 2.80474 3.4979
ltibia 25.2035
lfoot -11.3994 0.0481806
ltoes -35.0504
132
root 9.75498 15.9591 -10.2408 8.60714 39.7185 4.92143
lowerback 19.5807 -0.258098 1.94586
upperback 0.309588 0.548084 3.5687
thorax -10.7081 0.291147 2.6643
lowerneck -0.552971 -19.5821 -15.5359
upperneck 4.34634 -27.4092 19.5056
head 6.28191 -13.3202 5.77651
rclavicle 1.90833e-014 3.49861e-014
rhumerus 87.8288 26.6532 -20.7898
rradius 103.554
rwrist 4.12094
rhand -33.1951 14.4799
rfingers 7.12502
rthumb -6.40254 -15.4034
lclavicle 1.90833e-014 3.49861e-014
lhumerus -14.1798 41.9019 67.4313
lradius 141.102
lwrist 38.2144
lhand -24.4824 41.2428
lfingers 7.12502
lthumb 2.01143 71.2131
rfemur -33.6364 0.176288 -12.0155
rtibia 37.9778
rfoot -5.22249 -11.2466
rtoes -35.7326
lfemur -12.8214 2.95455 3.89385
ltibia 25.3761
lfoot -10.1486 0.827671
ltoes -34.6428
133
root 9.67357 15.9318 -10.0578 8.26328 40.866 4.91132
lowerback 19.6653 -0.237635 2.32708
upperback 0.303414 0.662008 3.51869
thorax -10.762 0.323883 2.35969
lowerneck 0.160764 -19.8017 -15.6416
upperneck 4.016 -27.8028 20.0899
head 6.24088 -13.548 5.95798
rclavicle 1.19271e-014 -2.70347e-014
rhumerus 87.7402 26.2859 -21.0318
rradius 103.559
rwrist 5.73735
rhand -33.4704 14.2372
rfingers 7.12502
rthumb -6.66832 -15.6378
lclavicle 1.19271e-014 -2.70347e-014
lhumerus -13.4108 42.3565 68.3502
lradius 141.131
lwrist 37.8857
lhand -23.8185 40.5757
lfingers 7.12502
lthumb 2.65266 70.539
rfemur -33.527 -0.337917 -11.2859
rtibia 40.5187
rfoot -7.12155 -11.636
rtoes -35.5222
lfemur -13.0636 3.06067 4.26263
ltibia 25.9373
lfoot -8.59607 2.02731
ltoes -35.1537
134
root 9.60944 15.9289 -9.88403 8.34439 41.7999 5.21976
lowerback 19.4236 -0.194487 2.52871
upperback 0.263014 0.737984 3.38081
thorax -10.6682 0.344204 2.06807
lowerneck 0.755569 -20.008 -15.6337
upperneck 3.9046 -28.1585 20.3512
head 6.21382 -13.7511 6.02712
rclavicle -2.74323e-014 -3.49861e-014
rhumerus 87.7492 26.0942 -21.3701
rradius 103.536
rwrist 7.19844
rhand -33.6614 14.4333
rfingers 7.12502
rthumb -6.85275 -15.4358
lclavicle -2.74323e-014 -3.49861e-014
lhumerus -12.7223 42.8441 69.0679
lradius 141.372
lwrist 37.6479
lhand -23.886 40.0555
lfingers 7.12502
lthumb 2.58746 70.0196
rfemur -33.6516 -1.20155 -10.8593
rtibia 42.6857
rfoot -8.31765 -11.6341
rtoes -35.7509
lfemur -13.5708 3.44818 4.1591
ltibia 26.7602
lfoot -7.06131 3.34098
ltoes -35.2337
135
root 9.55093 15.9401 -9.71541 8.09771 42.7198 5.08249
lowerback 19.145 -0.299597 2.91746
upperback 0.349261 0.684968 3.50511
thorax -10.4122 0.305719 1.99296
lowerneck 0.965482 -20.1574 -15.608
upperneck 3.90468 -28.3594 20.17
head 6.18041 -13.8647 5.95784
rclavicle -3.53837e-014 -7.95139e-015
rhumerus 88.4025 25.8678 -21.1972
rradius 103.645
rwrist 8.21416
rhand -33.7511 14.6869
rfingers 7.12502
rthumb -6.93928 -15.1793
lclavicle -3.53837e-014 -7.95139e-015
lhumerus -12.0496 43.5366 70.0387
lradius 141.729
lwrist 37.0232
lhand -24.2867 39.5548
lfingers 7.12502
lthumb 2.20051 69.5232
rfemur -33.7655 -2.26179 -10.0696
rtibia 44.4736
rfoot -9.25901 -11.4258
rtoes -35.6528
lfemur -14.0861 4.06958 4.40277
ltibia 27.8136
lfoot -5.99186 4.00509
ltoes -33.6665
136
root 9.49628 15.9412 -9.56279 7.85823 43.3603 4.88447
lowerback 18.9644 -0.454266 3.33062
upperback 0.49104 0.581015 3.70064
thorax -10.1508 0.245983 1.99575
lowerneck 0.672406 -20.2308 -16.0131
upperneck 4.26767 -28.489 20.1783
head 6.4231 -13.8967 5.92783
rclavicle -6.32135e-014 -6.36111e-015
rhumerus 89.5024 25.6197 -20.8675
rradius 103.791
rwrist 8.72922
rhand -34.0685 14.8364
rfingers 7.12502
rthumb -7.24566 -15.0196
lclavicle -6.32135e-014 -6.36111e-015
lhumerus -11.2891 44.5552 71.0323
lradius 141.985
lwrist 36.0751
lhand -24.1398 39.2954
lfingers 7.12502
lthumb 2.34232 69.2622
rfemur -33.905 -3.19343 -9.30335
rtibia 45.9151
rfoot -10.1433 -11.1781
rtoes -36.9216
lfemur -14.4832 4.27115 4.68431
ltibia 29.1178
lfoot -5.79144 4.57581
ltoes -31.8933
137
root 9.45264 15.9352 -9.42651 8.03658 43.6484 4.69332
lowerback 18.5464 -0.18336 3.833
upperback 0.18491 1.0176 3.56994
thorax -10.251 0.419211 1.44991
lowerneck 1.7607 -20.3264 -15.6772
upperneck 4.05379 -28.7176 20.4395
head 6.2166 -14.0699 6.05148
rclavicle -3.02153e-014 -5.08889e-014
rhumerus 88.9911 25.6291 -21.5276
rradius 103.821
rwrist 9.1148
rhand -34.1355 15.084
rfingers 7.12502
rthumb -7.31039 -14.7697
lclavicle -3.02153e-014 -5.08889e-014
lhumerus -10.6998 44.6823 71.3892
lradius 142.012
lwrist 35.6178
lhand -22.7051 39.2581
lfingers 7.12502
lthumb 3.72787 69.2053
rfemur -34.4256 -4.0178 -8.62993
rtibia 47.112
rfoot -10.8843 -10.8693
rtoes -38.4891
lfemur -15.1674 4.36057 4.81239
ltibia 30.6116
lfoot -6.24748 4.79166
ltoes -33.4581
